<?xml version="1.0" encoding="iso-8859-1"?>
<!-- Generator: Adobe Illustrator 19.0.0, SVG Export Plug-In . SVG Version: 6.00 Build 0)  -->
<svg version="1.1" id="Capa_1" xmlns="http://www.w3.org/2000/svg" xmlns:xlink="http://www.w3.org/1999/xlink" x="0px" y="0px"
	 viewBox="0 0 512 512" style="enable-background:new 0 0 512 512;" xml:space="preserve">
<path style="fill:#ECF0F1;" d="M483.31,512H28.69C12.844,512,0,499.156,0,483.31V105.931h512V483.31
	C512,499.156,499.156,512,483.31,512z"/>
<path style="fill:#687492;" d="M512,105.931H0V28.69C0,12.844,12.844,0,28.69,0H483.31C499.156,0,512,12.844,512,28.69V105.931z"/>
<rect x="35.31" y="35.31" style="fill:#E64C3C;" width="35.31" height="35.31"/>
<rect x="105.931" y="35.31" style="fill:#F0C419;" width="35.31" height="35.31"/>
<rect x="176.552" y="35.31" style="fill:#24AE5F;" width="35.31" height="35.31"/>
<rect x="52.966" y="158.897" style="fill:#E64C3C;" width="52.966" height="141.241"/>
<rect x="141.241" y="185.379" style="fill:#C03A2B;" width="52.966" height="114.759"/>
<rect x="229.517" y="203.034" style="fill:#D25627;" width="52.966" height="97.103"/>
<rect x="317.793" y="229.517" style="fill:#F29C1F;" width="52.966" height="70.621"/>
<rect x="406.069" y="176.552" style="fill:#F0C419;" width="52.966" height="123.586"/>
<g>
	<path style="fill:#BDC3C7;" d="M194.207,397.241H44.138c-4.873,0-8.828-3.946-8.828-8.828c0-4.882,3.955-8.828,8.828-8.828h150.069
		c4.873,0,8.828,3.946,8.828,8.828C203.034,393.295,199.08,397.241,194.207,397.241z"/>
	<path style="fill:#BDC3C7;" d="M167.724,361.931H44.138c-4.873,0-8.828-3.946-8.828-8.828c0-4.882,3.955-8.828,8.828-8.828h123.586
		c4.873,0,8.828,3.946,8.828,8.828C176.552,357.985,172.597,361.931,167.724,361.931z"/>
	<path style="fill:#BDC3C7;" d="M220.69,432.552H44.138c-4.873,0-8.828-3.946-8.828-8.828c0-4.882,3.955-8.828,8.828-8.828H220.69
		c4.873,0,8.828,3.946,8.828,8.828C229.517,428.606,225.562,432.552,220.69,432.552z"/>
	<path style="fill:#BDC3C7;" d="M220.69,467.862H44.138c-4.873,0-8.828-3.946-8.828-8.828c0-4.882,3.955-8.828,8.828-8.828H220.69
		c4.873,0,8.828,3.946,8.828,8.828C229.517,463.916,225.562,467.862,220.69,467.862z"/>
	<path style="fill:#BDC3C7;" d="M441.379,397.241H291.31c-4.873,0-8.828-3.946-8.828-8.828c0-4.882,3.955-8.828,8.828-8.828h150.069
		c4.873,0,8.828,3.946,8.828,8.828C450.207,393.295,446.252,397.241,441.379,397.241z"/>
	<path style="fill:#BDC3C7;" d="M414.897,361.931H291.31c-4.873,0-8.828-3.946-8.828-8.828c0-4.882,3.955-8.828,8.828-8.828h123.586
		c4.873,0,8.828,3.946,8.828,8.828C423.724,357.985,419.769,361.931,414.897,361.931z"/>
	<path style="fill:#BDC3C7;" d="M467.862,432.552H291.31c-4.873,0-8.828-3.946-8.828-8.828c0-4.882,3.955-8.828,8.828-8.828h176.552
		c4.873,0,8.828,3.946,8.828,8.828C476.69,428.606,472.735,432.552,467.862,432.552z"/>
	<path style="fill:#BDC3C7;" d="M467.862,467.862H291.31c-4.873,0-8.828-3.946-8.828-8.828c0-4.882,3.955-8.828,8.828-8.828h176.552
		c4.873,0,8.828,3.946,8.828,8.828C476.69,463.916,472.735,467.862,467.862,467.862z"/>
</g>
<g>
</g>
<g>
</g>
<g>
</g>
<g>
</g>
<g>
</g>
<g>
</g>
<g>
</g>
<g>
</g>
<g>
</g>
<g>
</g>
<g>
</g>
<g>
</g>
<g>
</g>
<g>
</g>
<g>
</g>
</svg>
